<?xml version="1.0" encoding="utf-8"?>
<!-- Generator: Adobe Illustrator 16.0.0, SVG Export Plug-In . SVG Version: 6.00 Build 0)  -->
<!DOCTYPE svg PUBLIC "-//W3C//DTD SVG 1.1//EN" "http://www.w3.org/Graphics/SVG/1.1/DTD/svg11.dtd">
<svg version="1.1" xmlns="http://www.w3.org/2000/svg" xmlns:xlink="http://www.w3.org/1999/xlink" x="0px" y="0px"
	 width="841.89px" height="1190.55px" viewBox="0 0 841.89 1190.55" enable-background="new 0 0 841.89 1190.55"
	 xml:space="preserve">
<g id="Layer_1">
	<g>
		<path fill="#FFD500" d="M311.724,294.601c0,0,0.022-0.577,0.063-1.657c0.15-1.09,0.329-2.715,1.099-4.625
			c0.737-1.902,1.972-4.158,4.089-6.143c2.094-1.991,5.106-3.58,8.614-4.237c3.503-0.693,7.428-0.528,11.371,0.329
			c3.958,0.862,8.059,2.022,11.984,4.281c1.942,1.129,3.831,2.565,5.32,4.502c0.711,0.993,1.323,2.091,1.716,3.304
			c0.369,1.219,0.511,2.521,0.397,3.805c-0.221,2.579-1.414,4.978-3.113,6.853c-1.712,1.853-3.907,3.418-6.738,3.796
			c-0.729,0.043-1.434,0.074-2.242-0.166c-0.147-0.045-0.259-0.064-0.436-0.13l-0.586-0.266c-0.426-0.189-0.663-0.39-0.97-0.592
			c-1.137-0.832-1.968-1.84-2.693-2.879c-1.432-2.092-2.359-4.385-2.986-6.741c-0.603-2.359-0.896-4.811-0.642-7.27
			c0.209-2.449,1.024-4.921,2.481-7.001c1.503-2.056,3.654-3.522,5.846-4.351c2.205-0.847,4.444-1.12,6.558-1.145
			c0.541,0.006,1.078,0.01,1.611,0.017c0.487,0.034,0.973,0.067,1.454,0.101c0.965,0.075,1.898,0.116,2.849,0.217
			c1.922,0.232,3.77,0.476,5.512,0.854c3.492,0.721,6.667,1.88,9.169,3.547c1.264,0.809,2.278,1.838,3.109,2.846
			c0.747,1.088,1.298,2.163,1.598,3.191c0.614,2.046,0.648,3.691,0.619,4.784c-0.034,1.097-0.083,1.675-0.083,1.675
			c-0.007,0.096-0.09,0.167-0.185,0.161c-0.088-0.006-0.155-0.077-0.162-0.161c0,0-0.041-0.578-0.177-1.643
			c-0.146-1.053-0.361-2.631-1.151-4.38c-0.773-1.75-2.276-3.547-4.612-4.786c-2.306-1.28-5.298-2.017-8.609-2.504
			c-1.665-0.255-3.408-0.373-5.204-0.483c-0.908-0.058-1.876-0.06-2.833-0.093c-0.481-0.013-0.968-0.027-1.456-0.039
			c-0.445,0.017-0.893,0.032-1.344,0.049c-1.84,0.119-3.696,0.398-5.382,1.068c-1.68,0.672-3.161,1.733-4.205,3.194
			c-2.163,2.905-2.502,7.302-1.59,11.385c0.463,2.046,1.218,4.095,2.331,5.838c0.551,0.866,1.196,1.67,1.906,2.227
			c0.17,0.12,0.377,0.297,0.486,0.335c0.064,0.036,0.125,0.078,0.187,0.124c0.088,0.045,0.261,0.086,0.388,0.131
			c0.294,0.125,0.768,0.131,1.185,0.127c1.796-0.164,3.702-1.311,5.103-2.784c1.425-1.481,2.416-3.385,2.636-5.343
			c0.112-0.978,0.035-1.964-0.218-2.912c-0.278-0.943-0.74-1.833-1.298-2.669c-1.188-1.638-2.818-2.983-4.58-4.07
			c-1.797-1.092-3.594-1.939-5.583-2.675c-0.925-0.349-1.925-0.626-2.867-0.94c-0.95-0.326-1.895-0.611-2.85-0.794
			c-3.766-0.97-7.491-1.257-10.812-0.728c-3.325,0.497-6.195,1.873-8.247,3.679c-2.071,1.798-3.341,3.912-4.122,5.725
			c-0.817,1.823-1.046,3.391-1.234,4.428c-0.081,1.079-0.125,1.654-0.125,1.654c-0.006,0.095-0.089,0.168-0.185,0.161
			C311.792,294.775,311.721,294.693,311.724,294.601z"/>
		<path fill="#7DD0DB" d="M369.486,248.535c0,0-0.116,0.349-0.237,1.011c-0.109,0.67-0.271,1.664-0.241,2.936
			c-0.025,1.27,0.167,2.808,0.531,4.53c0.212,0.855,0.502,1.75,0.8,2.687c0.412,0.901,0.743,1.886,1.263,2.837
			c1.009,1.914,2.29,3.888,3.895,5.777c1.583,1.911,3.462,3.743,5.508,5.517c1.063,0.842,2.146,1.697,3.241,2.563
			c1.166,0.775,2.344,1.561,3.533,2.352c1.158,0.831,2.46,1.475,3.713,2.196c1.281,0.717,2.567,1.438,3.854,2.16
			c1.288,0.718,2.576,1.436,3.858,2.152s2.525,1.63,3.785,2.426c0.624,0.417,1.261,0.815,1.867,1.244
			c0.577,0.461,1.154,0.921,1.725,1.377c1.133,0.929,2.302,1.788,3.296,2.827c2.073,1.967,3.867,4.11,5.359,6.285
			c0.688,1.134,1.45,2.169,2.005,3.289c0.519,1.138,1.133,2.169,1.504,3.272c0.844,2.15,1.39,4.206,1.647,6.056
			c0.308,1.841,0.32,3.479,0.229,4.804c-0.145,2.664-0.72,4.095-0.718,4.095c-0.036,0.09-0.138,0.133-0.229,0.097
			c-0.073-0.029-0.117-0.105-0.107-0.182c0,0,0.16-1.467-0.165-3.972c-0.084-0.626-0.188-1.313-0.375-2.049
			c-0.129-0.742-0.342-1.528-0.611-2.355c-0.477-1.665-1.242-3.469-2.197-5.353c-0.979-1.88-2.228-3.806-3.695-5.737
			c-1.525-1.89-3.21-3.821-5.155-5.654c-0.889-0.994-1.966-1.839-3.003-2.748c-0.521-0.456-1.045-0.913-1.57-1.373
			c-0.542-0.435-1.109-0.838-1.668-1.264c-1.144-0.827-2.205-1.731-3.453-2.508c-1.243-0.78-2.494-1.562-3.744-2.345
			c-1.252-0.776-2.505-1.554-3.752-2.328c-1.258-0.8-2.556-1.517-3.724-2.431c-1.19-0.871-2.371-1.735-3.537-2.589
			c-1.096-0.948-2.178-1.884-3.245-2.805c-2.037-1.944-3.934-3.913-5.458-6.011c-1.556-2.07-2.775-4.212-3.707-6.268
			c-0.482-1.02-0.776-2.075-1.141-3.031c-0.255-0.997-0.5-1.943-0.667-2.842c-0.275-1.812-0.376-3.407-0.276-4.716
			c0.047-1.31,0.274-2.324,0.428-3.005c0.168-0.688,0.306-1.034,0.306-1.034c0.032-0.091,0.131-0.139,0.221-0.107
			C369.465,248.348,369.51,248.448,369.486,248.535z"/>
		<path fill="#F37770" d="M398.408,216.535c0,0,1.957,0.85,4.697,2.508c1.368,0.829,2.952,1.84,4.543,3.083
			c1.6,1.227,3.258,2.624,4.787,4.187c0.817,0.732,1.492,1.613,2.25,2.399c0.729,0.816,1.342,1.725,1.935,2.591
			c0.479,0.95,0.939,1.874,1.255,2.797c0.268,0.953,0.497,1.853,0.648,2.689c0.071,0.865,0.084,1.656,0.092,2.341
			c0.035,0.682-0.175,1.295-0.254,1.775c-0.214,0.968-0.397,1.483-0.397,1.483c-0.036,0.093-0.138,0.141-0.231,0.108
			c-0.049-0.018-0.087-0.056-0.106-0.101l-0.011-0.026c0,0-0.221-0.539-0.496-1.414c-0.172-0.435-0.218-0.965-0.508-1.534
			c-0.246-0.575-0.519-1.204-0.76-1.889c-0.351-0.66-0.724-1.366-1.062-2.12c-0.436-0.721-0.885-1.483-1.293-2.297
			c-0.507-0.775-0.921-1.639-1.432-2.486c-0.548-0.823-1.057-1.7-1.711-2.486c-1.231-1.621-2.638-3.138-4.021-4.499
			c-0.673-0.704-1.404-1.296-2.041-1.928c-0.677-0.592-1.314-1.151-1.904-1.667c-2.416-2.01-4.149-3.212-4.151-3.212
			c-0.079-0.055-0.097-0.164-0.042-0.243C398.241,216.525,398.333,216.502,398.408,216.535z"/>
		<path fill="#F37770" d="M451.254,263.487c0,0-0.07,2.417-0.97,5.922c-0.233,0.874-0.476,1.829-0.822,2.812
			c-0.298,1.003-0.752,2.006-1.196,3.062c-0.456,1.048-1.021,2.093-1.592,3.16c-0.664,1.009-1.227,2.124-2.025,3.08l-1.121,1.493
			c-0.389,0.487-0.833,0.924-1.237,1.391c-0.427,0.45-0.815,0.937-1.271,1.34c-0.464,0.397-0.94,0.765-1.405,1.134
			c-0.924,0.755-1.95,1.283-2.941,1.733c-0.489,0.229-0.967,0.45-1.428,0.665c-0.492,0.14-0.967,0.276-1.422,0.407
			c-0.911,0.242-1.732,0.486-2.488,0.571c-0.764,0.064-1.424,0.104-1.97,0.117c-1.083,0.033-1.695-0.016-1.695-0.016
			c-0.099-0.007-0.174-0.093-0.164-0.192c0.005-0.057,0.034-0.107,0.08-0.136l0.016-0.013c0,0,0.535-0.351,1.456-0.848
			c0.46-0.254,1.016-0.535,1.651-0.84c0.632-0.308,1.284-0.795,2.026-1.195c0.367-0.207,0.749-0.424,1.146-0.647
			c0.374-0.258,0.758-0.523,1.15-0.797c0.787-0.552,1.651-1.049,2.446-1.72c0.422-0.299,0.85-0.611,1.3-0.9
			c0.434-0.315,0.841-0.677,1.273-1.016c0.421-0.354,0.881-0.679,1.278-1.074l1.176-1.214c0.823-0.784,1.44-1.751,2.163-2.614
			c0.634-0.929,1.273-1.846,1.812-2.784c1.08-1.875,1.967-3.714,2.63-5.34c1.319-3.262,1.803-5.586,1.803-5.586
			c0.019-0.094,0.112-0.154,0.205-0.134C451.201,263.324,451.259,263.404,451.254,263.487z"/>
		<path fill="#7DD0DB" d="M508.031,140.701c0,0-0.096,0.346-0.355,0.979c-0.294,0.611-0.604,1.591-1.245,2.688
			c-0.605,1.118-1.296,2.514-2.327,3.958c-0.491,0.74-1.012,1.528-1.564,2.358c-0.564,0.821-1.264,1.6-1.937,2.461
			c-0.688,0.851-1.406,1.738-2.146,2.656c-0.763,0.899-1.655,1.73-2.516,2.64c-1.748,1.796-3.571,3.728-5.722,5.416
			c-1.047,0.881-2.109,1.776-3.187,2.683c-1.074,0.912-2.152,1.848-3.354,2.631c-2.35,1.65-4.74,3.327-7.125,5.003l-1.751,1.224
			c-0.581,0.414-1.211,0.815-1.748,1.237l-1.58,1.267c-0.506,0.444-0.983,0.924-1.474,1.379c-1.847,1.897-3.43,3.978-3.984,6.177
			c-0.392,1.075-0.379,2.174-0.366,3.245c0.118,1.073,0.38,2.129,0.796,3.14c0.84,2.02,2.2,3.796,3.558,5.338
			c2.774,3.08,5.687,5.213,7.676,6.727c2.039,1.468,3.268,2.239,3.268,2.239c0.081,0.051,0.104,0.159,0.054,0.241
			c-0.043,0.067-0.126,0.095-0.199,0.074c0,0-1.412-0.413-3.736-1.502c-1.172-0.529-2.567-1.241-4.105-2.181
			c-1.536-0.948-3.235-2.106-4.915-3.636c-1.673-1.53-3.41-3.396-4.646-5.902c-0.628-1.243-1.073-2.661-1.275-4.177
			c-0.134-1.514-0.07-3.135,0.433-4.636c0.922-3.059,2.977-5.519,5.221-7.51c0.582-0.479,1.146-0.977,1.747-1.439l1.855-1.33
			c0.62-0.432,1.229-0.771,1.845-1.162l1.864-1.165c2.413-1.538,4.824-3.074,7.2-4.588c1.221-0.718,2.313-1.585,3.403-2.429
			c1.094-0.841,2.177-1.672,3.239-2.489c2.201-1.556,4.034-3.386,5.861-5.035c0.897-0.839,1.827-1.607,2.625-2.442
			c0.781-0.854,1.533-1.68,2.255-2.473c0.712-0.805,1.449-1.533,2.051-2.304c0.59-0.782,1.146-1.523,1.673-2.22
			c1.104-1.365,1.857-2.686,2.521-3.753c0.701-1.051,1.05-1.964,1.376-2.553c0.293-0.604,0.413-0.951,0.412-0.951
			c0.031-0.09,0.13-0.139,0.219-0.108c0.088,0.03,0.134,0.122,0.112,0.209L508.031,140.701z"/>
		<path fill="#FBAD18" d="M491.636,218.242c0,0,0.064,1.204-0.119,3.28c-0.095,1.04-0.256,2.297-0.496,3.734
			c-0.145,0.715-0.3,1.476-0.46,2.275c-0.202,0.794-0.414,1.628-0.638,2.499c-0.268,0.858-0.548,1.752-0.835,2.679
			c-0.344,0.907-0.698,1.848-1.063,2.815c-0.427,0.941-0.864,1.909-1.313,2.899c-0.484,0.969-1.035,1.935-1.568,2.934
			c-1.148,1.945-2.41,3.922-3.863,5.808c-0.679,0.982-1.484,1.872-2.267,2.791c-0.769,0.931-1.572,1.836-2.45,2.672
			c-1.651,1.698-3.3,3.396-4.926,5.067c-0.685,0.866-1.34,1.729-2.028,2.547c-0.664,0.841-1.206,1.781-1.808,2.638
			c-0.621,0.852-1.022,1.797-1.567,2.647c-0.507,0.869-0.831,1.791-1.273,2.642c-0.374,0.876-0.63,1.766-0.941,2.611
			c-0.218,0.865-0.462,1.706-0.622,2.524c-0.275,1.646-0.46,3.19-0.436,4.572c-0.017,0.693,0.002,1.344,0.07,1.943
			c0.021,0.607,0.09,1.159,0.161,1.661c0.296,2.001,0.691,3.121,0.691,3.121c0.033,0.091-0.014,0.193-0.105,0.225
			c-0.074,0.025-0.152,0-0.197-0.057c0,0-0.775-0.968-1.564-2.967c-0.409-0.993-0.825-2.248-1.072-3.739
			c-0.286-1.487-0.393-3.211-0.3-5.094c0.066-0.937,0.218-1.908,0.354-2.92c0.265-0.979,0.478-2.019,0.819-3.044
			c0.685-2.054,1.686-4.117,2.952-6.084c0.699-0.938,1.342-1.929,2.126-2.85c0.802-0.913,1.645-1.809,2.481-2.705
			c1.732-1.559,3.493-3.142,5.252-4.724c0.884-0.752,1.697-1.572,2.477-2.419c0.795-0.835,1.614-1.644,2.311-2.547
			c1.492-1.727,2.804-3.553,4.011-5.364c0.562-0.93,1.146-1.832,1.669-2.742c0.491-0.927,0.971-1.835,1.441-2.718
			c0.42-0.91,0.83-1.795,1.227-2.651c0.349-0.877,0.684-1.727,1.006-2.542c0.277-0.832,0.543-1.629,0.797-2.388
			c0.217-0.772,0.42-1.505,0.613-2.192c0.339-1.389,0.589-2.611,0.756-3.627c0.33-2.036,0.355-3.207,0.355-3.207
			c0.001-0.095,0.08-0.171,0.176-0.169C491.558,218.074,491.633,218.153,491.636,218.242z"/>
		<path fill="#7DD0DB" d="M421.549,133.226c0,0-0.781-0.803-1.983-2.334c-1.201-1.534-2.834-3.806-4.453-6.754
			c-0.811-1.473-1.609-3.118-2.335-4.917c-0.733-1.795-1.33-3.763-1.812-5.841c-0.268-1.032-0.373-2.119-0.57-3.203
			c-0.162-1.089-0.177-2.212-0.27-3.338c-0.039-1.129,0.055-2.271,0.079-3.42c0.086-1.144,0.306-2.281,0.458-3.43
			c0.211-1.224,0.489-2.197,0.729-3.303c0.311-1.091,0.66-2.243,1.042-3.331c0.784-2.17,1.945-4.226,3.297-6.005
			c1.399-1.759,2.924-3.13,4.137-4.409c1.21-1.284,2.089-2.638,2.849-3.985c0.304-0.712,0.683-1.362,0.943-2.039
			c0.256-0.682,0.5-1.331,0.731-1.939c0.361-1.261,0.749-2.362,1-3.293c0.462-1.868,0.79-2.95,0.79-2.95l0.004-0.009
			c0.026-0.093,0.125-0.145,0.219-0.117c0.07,0.022,0.12,0.087,0.123,0.157c0,0,0.068,1.116,0.075,3.093
			c0.017,0.99-0.113,2.188-0.235,3.576c-0.228,1.379-0.508,2.949-1.104,4.632c-0.632,1.661-1.551,3.455-2.843,5.05
			c-1.261,1.611-2.688,2.979-3.862,4.482c-1.221,1.474-2.235,3.147-3.124,5.002c-0.416,0.935-0.785,1.861-1.147,2.866
			c-0.298,1.029-0.693,2.17-0.914,3.114c-0.195,1.036-0.46,2.064-0.604,3.11c-0.079,1.051-0.232,2.098-0.258,3.145
			c0.029,1.046-0.024,2.093,0.069,3.122c0.127,1.023,0.163,2.052,0.357,3.041c0.667,3.982,1.915,7.612,3.26,10.598
			c1.349,2.991,2.778,5.351,3.842,6.953c1.069,1.604,1.771,2.449,1.771,2.449c0.062,0.075,0.051,0.184-0.023,0.245
			C421.716,133.299,421.611,133.29,421.549,133.226z"/>
		<path fill="#F37770" d="M481.414,92.014c-0.002,0-1.736,1.203-4.152,3.212c-0.591,0.517-1.228,1.076-1.903,1.669
			c-0.638,0.631-1.371,1.224-2.042,1.927c-1.385,1.362-2.79,2.88-4.024,4.5c-0.652,0.785-1.163,1.663-1.71,2.487
			c-0.509,0.847-0.926,1.71-1.43,2.486c-0.409,0.814-0.857,1.578-1.294,2.298c-0.338,0.754-0.711,1.46-1.062,2.121
			c-0.241,0.685-0.514,1.315-0.76,1.889c-0.29,0.57-0.335,1.1-0.507,1.535c-0.277,0.875-0.497,1.414-0.497,1.414l-0.012,0.026
			c-0.036,0.092-0.141,0.136-0.232,0.098c-0.052-0.02-0.085-0.06-0.103-0.105c0,0-0.187-0.515-0.398-1.483
			c-0.08-0.481-0.292-1.094-0.258-1.776c0.011-0.684,0.024-1.477,0.094-2.342c0.153-0.836,0.383-1.737,0.649-2.69
			c0.316-0.923,0.774-1.847,1.254-2.797c0.592-0.867,1.208-1.775,1.935-2.593c0.761-0.787,1.434-1.667,2.249-2.399
			c1.53-1.564,3.188-2.96,4.79-4.188c1.591-1.241,3.175-2.252,4.543-3.082c2.74-1.658,4.698-2.509,4.697-2.509
			c0.09-0.04,0.192,0,0.23,0.088C481.508,91.877,481.478,91.967,481.414,92.014z"/>
		<path fill="#F37770" d="M341.674,149.319c0,0,0.282-0.504,0.81-1.449c0.628-0.902,1.526-2.27,3.08-3.619
			c1.521-1.36,3.646-2.808,6.435-3.613c2.771-0.821,6.178-0.865,9.599,0.145c3.435,0.977,6.854,2.908,9.978,5.465
			c3.132,2.567,6.256,5.464,8.727,9.261c1.217,1.888,2.247,4.024,2.694,6.427c0.182,1.208,0.227,2.465,0.025,3.723
			c-0.227,1.253-0.693,2.478-1.377,3.568c-1.371,2.195-3.524,3.789-5.89,4.687c-2.367,0.872-5.034,1.266-7.727,0.316
			c-0.668-0.293-1.309-0.585-1.921-1.167c-0.11-0.107-0.203-0.175-0.328-0.313l-0.403-0.504c-0.294-0.362-0.413-0.65-0.594-0.969
			c-0.635-1.259-0.917-2.535-1.088-3.79c-0.327-2.514-0.11-4.978,0.405-7.36c0.537-2.375,1.39-4.693,2.734-6.768
			c1.299-2.084,3.149-3.917,5.392-5.107c2.273-1.147,4.856-1.477,7.183-1.22c2.349,0.248,4.468,1.021,6.363,1.962
			c0.479,0.249,0.956,0.498,1.428,0.745c0.42,0.252,0.835,0.503,1.248,0.751c0.827,0.506,1.638,0.965,2.441,1.489
			c1.605,1.081,3.137,2.138,4.518,3.268c2.782,2.229,5.084,4.706,6.554,7.329c0.759,1.295,1.192,2.671,1.477,3.947
			c0.17,1.308,0.176,2.516-0.025,3.567c-0.383,2.103-1.101,3.583-1.621,4.543c-0.529,0.962-0.835,1.454-0.837,1.454
			c-0.049,0.083-0.154,0.109-0.237,0.059c-0.074-0.044-0.104-0.138-0.07-0.216c0,0,0.226-0.533,0.588-1.542
			c0.35-1.005,0.873-2.507,0.966-4.425c0.104-1.91-0.418-4.194-1.937-6.358c-1.472-2.189-3.801-4.206-6.529-6.145
			c-1.365-0.984-2.863-1.881-4.416-2.797c-0.78-0.465-1.643-0.907-2.479-1.372c-0.424-0.231-0.85-0.462-1.279-0.697l-1.221-0.567
			c-1.69-0.73-3.472-1.324-5.277-1.494c-1.801-0.166-3.604,0.109-5.198,0.935c-3.245,1.607-5.547,5.366-6.59,9.418
			c-0.52,2.031-0.779,4.2-0.581,6.258c0.097,1.021,0.305,2.032,0.685,2.85c0.098,0.184,0.2,0.436,0.281,0.519
			c0.039,0.061,0.075,0.125,0.108,0.194c0.06,0.082,0.192,0.197,0.287,0.294c0.204,0.244,0.624,0.466,0.998,0.651
			c1.674,0.672,3.893,0.517,5.81-0.158c1.943-0.67,3.691-1.916,4.778-3.559c0.544-0.818,0.925-1.731,1.13-2.691
			c0.181-0.967,0.175-1.968,0.058-2.966c-0.313-2-1.155-3.939-2.229-5.707c-1.105-1.789-2.321-3.36-3.758-4.919
			c-0.665-0.732-1.429-1.434-2.126-2.142c-0.696-0.721-1.409-1.405-2.177-2.001c-2.914-2.577-6.099-4.527-9.297-5.566
			c-3.188-1.071-6.369-1.15-9.017-0.475c-2.663,0.659-4.756,1.965-6.274,3.224c-1.558,1.251-2.474,2.544-3.112,3.384
			c-0.563,0.923-0.863,1.417-0.863,1.417c-0.049,0.082-0.156,0.108-0.238,0.059C341.656,149.504,341.629,149.4,341.674,149.319z"/>
		<path fill="#FFD500" d="M364.563,94.888c-0.001,0,1.958,0.85,4.698,2.508c1.37,0.83,2.953,1.84,4.543,3.081
			c1.601,1.227,3.26,2.624,4.79,4.188c0.816,0.732,1.49,1.613,2.249,2.4c0.729,0.816,1.341,1.724,1.934,2.592
			c0.479,0.949,0.939,1.873,1.254,2.796c0.266,0.955,0.496,1.854,0.649,2.689c0.069,0.867,0.083,1.657,0.092,2.342
			c0.036,0.682-0.176,1.296-0.255,1.776c-0.213,0.968-0.401,1.482-0.401,1.482c-0.033,0.094-0.135,0.142-0.229,0.109
			c-0.049-0.019-0.086-0.057-0.104-0.102l-0.011-0.026c0,0-0.221-0.539-0.496-1.415c-0.174-0.434-0.219-0.964-0.508-1.533
			c-0.246-0.575-0.519-1.205-0.759-1.889c-0.349-0.663-0.723-1.368-1.061-2.122c-0.436-0.721-0.885-1.483-1.293-2.298
			c-0.506-0.775-0.92-1.639-1.431-2.486c-0.547-0.823-1.057-1.7-1.711-2.485c-1.233-1.621-2.638-3.138-4.023-4.5
			c-0.672-0.703-1.404-1.296-2.042-1.928c-0.675-0.592-1.313-1.151-1.903-1.668c-2.416-2.009-4.15-3.211-4.151-3.211
			c-0.079-0.054-0.098-0.162-0.044-0.242C364.397,94.878,364.489,94.855,364.563,94.888z"/>
		<path fill="#8DC045" d="M531.973,191.067c0,0-1.8,1.1-4.289,3.031c-0.611,0.497-1.272,1.032-1.972,1.601
			c-0.668,0.606-1.42,1.187-2.12,1.872c-1.438,1.327-2.907,2.815-4.214,4.42c-0.692,0.775-1.234,1.658-1.841,2.468
			c-0.565,0.837-1.044,1.704-1.559,2.509c-0.444,0.841-0.875,1.653-1.283,2.423c-0.32,0.803-0.657,1.557-0.957,2.263
			c-0.193,0.731-0.422,1.396-0.602,2c-0.217,0.6-0.195,1.15-0.312,1.595c-0.148,0.899-0.269,1.431-0.269,1.432l-0.002,0.014
			c-0.012,0.047-0.057,0.076-0.103,0.065c-0.036-0.008-0.063-0.037-0.067-0.072c0,0.001-0.083-0.52-0.168-1.464
			c-0.025-0.469-0.17-1.061-0.062-1.714c0.073-0.655,0.132-1.41,0.247-2.229c0.201-0.792,0.467-1.643,0.751-2.547
			c0.342-0.876,0.822-1.746,1.263-2.671c0.584-0.837,1.131-1.743,1.806-2.568c0.698-0.802,1.339-1.674,2.115-2.418
			c1.457-1.579,3.052-3.005,4.598-4.267c1.539-1.271,3.068-2.331,4.397-3.205c2.664-1.735,4.557-2.688,4.557-2.688
			c0.041-0.022,0.096-0.007,0.116,0.038C532.024,190.993,532.011,191.043,531.973,191.067z"/>
		<path fill="#FBAD18" d="M324.811,161.747c-0.002,0,0.118,0.347,0.411,0.951c0.329,0.589,0.675,1.502,1.378,2.553
			c0.663,1.066,1.416,2.389,2.52,3.752c0.525,0.698,1.083,1.438,1.672,2.221c0.602,0.77,1.34,1.5,2.051,2.303
			c0.723,0.792,1.476,1.618,2.255,2.474c0.798,0.835,1.729,1.603,2.625,2.442c1.829,1.649,3.661,3.479,5.862,5.035
			c1.064,0.817,2.146,1.647,3.24,2.488c1.092,0.845,2.183,1.712,3.403,2.43c2.375,1.513,4.789,3.05,7.201,4.587l1.866,1.165
			c0.615,0.392,1.225,0.731,1.843,1.163l1.858,1.329c0.6,0.462,1.164,0.96,1.745,1.439c2.243,1.992,4.296,4.452,5.222,7.511
			c0.5,1.5,0.565,3.121,0.432,4.635c-0.204,1.516-0.646,2.934-1.276,4.178c-1.235,2.507-2.974,4.372-4.645,5.902
			c-1.683,1.529-3.382,2.688-4.916,3.636c-1.541,0.94-2.935,1.651-4.106,2.181c-2.325,1.089-3.738,1.501-3.738,1.501
			c-0.093,0.029-0.19-0.023-0.219-0.115c-0.023-0.077,0.01-0.157,0.074-0.2c0,0,1.229-0.771,3.266-2.238
			c1.991-1.515,4.901-3.646,7.679-6.727c1.358-1.542,2.714-3.318,3.556-5.337c0.417-1.012,0.68-2.068,0.794-3.141
			c0.015-1.07,0.027-2.17-0.363-3.244c-0.557-2.199-2.139-4.281-3.985-6.178c-0.491-0.455-0.967-0.935-1.475-1.379l-1.578-1.266
			c-0.537-0.424-1.17-0.823-1.752-1.237l-1.747-1.225c-2.388-1.676-4.775-3.352-7.126-5.003c-1.203-0.782-2.281-1.719-3.355-2.632
			c-1.077-0.905-2.141-1.801-3.188-2.681c-2.151-1.688-3.973-3.62-5.72-5.416c-0.862-0.91-1.752-1.742-2.516-2.641
			c-0.741-0.918-1.458-1.805-2.145-2.656c-0.673-0.861-1.374-1.641-1.939-2.461c-0.55-0.831-1.072-1.619-1.564-2.358
			c-1.031-1.444-1.72-2.839-2.326-3.958c-0.641-1.097-0.953-2.077-1.246-2.689c-0.26-0.631-0.355-0.978-0.355-0.978l-0.005-0.015
			c-0.024-0.092,0.03-0.187,0.122-0.212C324.688,161.611,324.78,161.662,324.811,161.747z"/>
	</g>
	<g>
		<path fill="#7DD0DB" d="M681.947,960.441c0,20.959-16.98,37.941-37.93,37.941c-20.95,0-37.936-16.982-37.936-37.941
			c0-20.95,16.985-37.934,37.936-37.934C664.967,922.508,681.947,939.491,681.947,960.441z"/>
		<path fill="#F37770" d="M733.141,918.4c0,11.097-9,20.09-20.092,20.09c-11.094,0-20.088-8.993-20.088-20.09
			c0-11.095,8.994-20.09,20.088-20.09C724.141,898.311,733.141,907.306,733.141,918.4z"/>
		<path fill="#FBAD18" d="M665.11,893.872c0,8.005-6.486,14.494-14.483,14.494c-8.008,0-14.492-6.489-14.492-14.494
			c0-7.996,6.484-14.483,14.492-14.483C658.624,879.389,665.11,885.876,665.11,893.872z"/>
		<path fill="#FFD500" d="M707.442,869.342c0,8.005-6.475,14.485-14.481,14.485c-8,0-14.489-6.48-14.489-14.485
			c0-8.003,6.489-14.48,14.489-14.48C700.968,854.861,707.442,861.339,707.442,869.342z"/>
		<path fill="#7DD0DB" d="M753.229,869.342c0,5.55-4.497,10.047-10.046,10.047c-5.544,0-10.043-4.497-10.043-10.047
			c0-5.543,4.499-10.04,10.043-10.04C748.732,859.302,753.229,863.799,753.229,869.342z"/>
	</g>
	
		<text transform="matrix(1 0 0 1 252.4023 991.6748)" fill="#00A6D4" font-family="'KBPlanetEarth'" font-size="160.8621" letter-spacing="13">EPR</text>
	<g>
		<path fill="#00A6D4" d="M282.969,1009.943c1.341-3.795,3.138-6.632,15.662-3.582c12.529,3.039,17.054,4.984,25.298,7.167
			c4.557,1.206,27.527,6.592,19.295,17.361c-8.229,10.769-26.508,36.398-36.163,47.885c-2.467,2.938-7.774,8.303-14.27,5.638
			c-6.507-2.671-7.565-12.428-7.565-12.428S280.674,1016.448,282.969,1009.943z"/>
		<path fill="#F6DE32" d="M353.891,1028.46c0.757-3.945,2.095-7.017,14.944-5.882c12.844,1.127,17.61,2.377,26.081,3.299
			c4.692,0.502,28.202,2.392,21.684,14.27c-6.531,11.887-20.759,39.966-28.583,52.771c-2.005,3.274-6.445,9.376-13.273,7.706
			c-6.814-1.668-9.338-11.147-9.338-11.147S352.589,1035.248,353.891,1028.46z"/>
		<path fill="#E22833" d="M492.632,1031.64c-0.561-3.982-1.761-7.114-14.641-6.605c-12.878,0.506-17.699,1.519-26.21,2.035
			c-4.709,0.29-28.283,1.019-22.342,13.205c5.945,12.186,18.793,40.919,25.99,54.083c1.84,3.374,5.98,9.676,12.875,8.347
			c6.899-1.336,9.871-10.683,9.871-10.683S493.605,1038.47,492.632,1031.64z"/>
		<path fill="#7DD0DB" d="M568.525,1017.11c-0.861-3.921-2.273-6.962-15.084-5.517c-12.807,1.433-17.549,2.804-25.997,3.937
			c-4.68,0.625-28.137,3.063-21.333,14.787c6.811,11.728,21.724,39.455,29.854,52.053c2.082,3.234,6.671,9.222,13.455,7.392
			c6.776-1.831,9.067-11.379,9.067-11.379S569.991,1023.861,568.525,1017.11z"/>
		<path fill="none" stroke="#FFD500" stroke-width="4" stroke-linecap="round" stroke-linejoin="round" stroke-miterlimit="10" d="
			M262.444,1006.489c0,0,20.867,16.554,89.203,29.917c68.336,13.355,127.622,6.066,150.54,2.422
			c22.922-3.631,76.082-20.549,79.106-22.043"/>
	</g>
	<g>
		<path fill="#7DD0DB" d="M148.826,960.441c0,20.959,16.985,37.941,37.936,37.941c20.946,0,37.932-16.982,37.932-37.941
			c0-20.95-16.985-37.934-37.932-37.934C165.812,922.508,148.826,939.491,148.826,960.441z"/>
		<path fill="#F37770" d="M97.643,918.4c0,11.097,8.991,20.09,20.083,20.09c11.101,0,20.089-8.993,20.089-20.09
			c0-11.095-8.989-20.09-20.089-20.09C106.634,898.311,97.643,907.306,97.643,918.4z"/>
		<path fill="#FBAD18" d="M165.666,893.872c0,8.005,6.488,14.494,14.488,14.494c8.001,0,14.489-6.489,14.489-14.494
			c0-7.996-6.488-14.483-14.489-14.483C172.154,879.389,165.666,885.876,165.666,893.872z"/>
		<path fill="#FFD500" d="M123.331,869.342c0,8.005,6.479,14.485,14.485,14.485c7.997,0,14.487-6.48,14.487-14.485
			c0-8.003-6.49-14.48-14.487-14.48C129.809,854.861,123.331,861.339,123.331,869.342z"/>
		<path fill="#7DD0DB" d="M77.553,869.342c0,5.55,4.499,10.047,10.043,10.047c5.545,0,10.047-4.497,10.047-10.047
			c0-5.543-4.502-10.04-10.047-10.04C82.052,859.302,77.553,863.799,77.553,869.342z"/>
	</g>
	<path fill="#F5F1DB" d="M585.188,537.538"/>
</g>
<g id="Layer_2">
	<g>
		<g>
			<path fill="#FDD3BC" d="M441.31,498.769c-0.031-4.533,8.426-36.04,13.458-40.636c5.159-4.71,26.511-0.039,26.511-0.039
				l6.097-0.044c0.462,4.071-3.33,3.811,0.034,6.285c0,0-1.924,12.912-4.188,21.163c-2.052-2.584-18.727,1.7-21.239,2.015
				c-2.51,0.354-2.935,20.178-2.935,20.178s8.383,5.417,8.563,10.62c0.042,1.629,0.532,3.747,0.815,5.835
				c-2.898-1.695-8.313,5.563-8.313,5.563l-0.038,0.033c-0.928-0.742-2.091-0.922-3.399-0.638c0,0-4.742-0.6-4.135,3.395
				c0.31,1.951,9.302,0,9.302,0c0.349,1.102,0.502,2.519,0.461,4.251c-0.181,6.055-5.02,9.879-13.876,10.156
				c-8.849,0.322-23.472-13.234-26.121-17.802c-2.655-4.532-1.774-11.96,3.533-20.068
				C431.153,500.928,441.31,498.769,441.31,498.769z"/>
			<path fill="#FDD3BC" d="M831.084,386.517c2.651,9.949-41.595,22.8-39.161,23.469c2.45,0.641,15.256,1.101,26.563,1.101
				c11.278,0,9.052,8.847,4.637,9.133c-4.43,0.314-31.2,1.024-32.071,4.564c-0.395,1.449-4.397,4.25-9.802,7.153
				c-0.051,0.034-0.08,0.034-0.121,0.067c-1.455,0.778-2.962,1.563-4.591,2.304c-2.659,0.316-3.407-3.295-19.723-2.799
				c-22.414,0.642-81.627,67.931-81.627,67.931c-1.94-2.158-3.473-4.497-4.205-7.007l-0.042-0.04
				c1.453-1.023-2.073-6.729-0.941-8.393c4.113-5.982,9.725-8.181,8.875-13.063c1.655-1.345,55.749-44.666,55.318-48.342
				c-0.458-3.757-4.89,2.189-2.226-21.667c2.656-23.931-24.328-30.763-6.622-32.322c17.699-1.552,13.061,21.704,25.452,21.028
				c12.39-0.67,21.667-48.033,32.074-45.984c10.404,2.023-14.171,41.104-6.199,40.888c7.961-0.21,30.298-32.745,38.474-24.316
				c8.223,8.385-44.028,34.474-30.085,38.017C799.011,401.779,828.429,376.574,831.084,386.517z"/>
			<path fill="#771D31" d="M538.12,772.467c1.065,3.016-1.471,14.051-7.046,14.295c-5.51,0.217-8.386-10.402-13.278-14.826
				c-4.834-4.42-14.355-1.17-14.355-1.17c1.485-1.586,1.356-4.501,1.602-4.765c0,0,1.185,1.825,1.225,1.825
				c4.177-2.156,12.416-5.24,19.897-1.266C530.623,768.895,534.551,770.906,538.12,772.467z"/>
			<path fill="#008EB3" d="M555.274,741.229c0,0,0.265,19.596-1.399,23.41c-1.669,3.865-11.638,9.424-11.638,9.424
				c-1.311-0.426-2.664-0.953-4.117-1.596c-3.569-1.561-7.497-3.572-11.956-5.906c-7.481-3.975-15.721-0.891-19.897,1.266
				c-0.04,0-0.04,0.033-0.04,0.033c-1.729,0.889-2.065,2.006-2.786,1.635c-6.547-3.389,0-24.777,0-29.488
				c0-3.928,5.318-5.275,8.318-7.82l16.463,2.822c5.702,0.568,12.643,3.463,18.479,6.221H555.274z"/>
			<path fill="#BCB3A6" d="M474.213,499.93c0,0-0.687-11.57,1.618-14.963c0.407-0.601,1.324-0.161,1.909-0.2
				c3.881-0.25,5.638,0.162,5.48,0.729c-0.157,0.566-3.058,13.37-7.516,13.812C475.705,499.308,475.233,500.424,474.213,499.93z"/>
			<path fill="#F5C1A2" d="M756.815,431.509c16.315-0.496,17.063,3.115,19.723,2.799c-7.152,3.434-15.446,6.408-20.885,6.868
				c-7.817,0.6-39.578,31.539-58.444,50.549c-8.392,8.493-14.199,14.586-14.199,14.586c-0.351-0.213-0.711-0.497-1.057-0.746
				c-2.42-1.837-4.819-3.896-6.765-6.125C675.188,499.439,734.401,432.15,756.815,431.509z"/>
			<path fill="#AB9D89" d="M697.908,492.433c10.165,8.778-3.54,22.618-3.54,22.618c0.466-1.307-5.341-4.316-11.358-8.74
				c0,0,5.808-6.093,14.199-14.586L697.908,492.433z"/>
			<path fill="#CEC6B8" d="M683.01,506.31c6.018,4.424,11.824,7.433,11.358,8.74c-0.873,2.441-58.993,38.95-58.993,38.95
				c-0.242-5.804-8.247-8.283-9.1-13.625c0,0,55.141-30.774,55.678-34.811C682.299,505.813,682.659,506.097,683.01,506.31z"/>
			<path fill="#00A4BF" d="M528.736,635.887l-17.765,36.75c-1.516-26.016-3.291-51.916-3.291-51.916
				C511.185,623.965,523.609,632.463,528.736,635.887z"/>
			<path fill="#FDCEAF" d="M504.005,448.573 M649.446,482.481c0,0,0.293-13.873,16.23-18.296c1.015-0.284,1.979-0.495,2.888-0.637
				c6.692-0.887,10.339,2.371,11.263,7.361c0.85,4.882-0.885,11.469-4.998,17.451c-1.132,1.664-2.435,3.01-3.888,4.033
				c-9.954,7.581-25.914,3.261-25.914,4.816c0,0.78-7.182,8-18.752,15.256c-9.789,6.192-22.671,12.394-36.996,14.727
				c-6.735,1.17-13.779,1.414-20.955,0.423c-2.87-0.388-5.632-1.024-8.353-1.875l-0.034-0.036
				c-5.497-1.695-10.63-4.281-15.445-7.396c-26.298-17.098-41.938-50.587-41.938-50.587c-5.593,5.911-13.561,2.055-13.561,2.055
				c-0.815-0.388-1.56-0.852-2.229-1.349c-3.364-2.474-5.025-6.264-5.487-10.334c-1.134-10.014,5.199-21.943,12.697-21.343
				c2.731,0.211,4.754,1.026,6.197,2.158c4.534,3.398,3.864,9.626,3.864,9.626s10.021-28.877,26.226-29.199
				c4.995-0.072,9.711-1.379,13.847-3.33l18.474,4.214c0,0-2.514-11.646-8.245-11.362c3.648-3.651,5.975-7.613,6.333-10.763
				c0.891-7.966,36.573,31.292,62.834,32.459c26.234,1.168,24.185,3.542,24.185,8.85
				C647.689,444.71,645.027,480.718,649.446,482.481 M629.198,490.307c9.069-2.442,0-16.494,0-16.494
				c-6.286-7.752-15.036,1.978-15.252,7.857C613.701,487.546,620.148,492.749,629.198,490.307z M610.518,488.291
				c0,0-11.939-14.232-32.458-17.626c-16.919-2.799-33.744-0.141-38.938,2.905c-1.096,0.631-1.671,1.27-1.631,1.907
				c0,0,4.707,9.099,12.734,17.273c6.519,6.62,15.229,12.711,25.348,12.815c8.79,0.07,15.938-1.876,21.424-4.566
				C605.589,496.786,610.083,490.874,610.518,488.291z M519.469,471.263c9.057,2.44,15.508-2.763,15.254-8.637
				c-0.207-5.84-8.958-15.61-15.254-7.857C519.469,454.77,510.416,468.822,519.469,471.263z"/>
			<path fill="#006274" d="M565.411,698.203c-0.628,2.262-1.094,4.773-1.236,7.566c-0.213,3.766-0.275,8.717-0.318,13.953
				c0.043,0.074,0,0.102,0,0.143c-0.183,1.939,0,3.967,0,5.381c0,0.076,0,0.104,0,0.174c0.043,12.143,0.318,23.9,0.318,23.9
				c-2.472-0.387-5.731-1.199-8.809-2.834c-0.926-0.504-3.891-2.334-5.099-2.92c0,0-10.243-19.994-7.268-26.191
				C545.935,711.184,565.411,698.203,565.411,698.203z"/>
			<path fill="#FEF3E1" d="M675.188,499.439c1.945,2.229,5.401,5.033,7.821,6.871c-0.537,4.037-45.069,28.071-45.069,28.071
				c-1.724-11.08-5.127-19.966-11.633-21.88l-0.032-0.035c11.57-7.257,18.752-14.477,18.752-15.256
				c0-1.556,15.96,2.765,25.914-4.816l0.042,0.04C671.716,494.943,673.248,497.282,675.188,499.439z"/>
			<path fill="#642D2E" d="M629.095,350.309c63.115,19.785,57.35,81.946,44.526,98.831c-12.454,16.494-1.826,13.629-5.057,14.408
				c-0.909,0.143-1.873,0.354-2.888,0.637c-15.938,4.423-16.23,18.296-16.23,18.296c-4.419-1.763-1.757-37.771-1.757-43.077
				c0-5.308,2.05-7.682-24.185-8.85c-26.261-1.167-61.943-40.426-62.834-32.459c-0.358,3.149-2.685,7.111-6.333,10.763
				c-2.73,2.723-6.231,5.238-10.229,7.148c-4.136,1.951-8.852,3.258-13.847,3.33c-16.204,0.321-26.226,29.199-26.226,29.199
				s0.67-6.228-3.864-9.626c0,0-0.281-30.193,0-34.301c0.327-4.142,0.604-25.664,15.647-38.937
				c15.048-13.273,31.86-4.742,31.86-4.742S565.974,330.557,629.095,350.309z"/>
			<path fill="#C89C81" d="M589.279,527.192l10.471,6.172c0,1.591-14.578,5.104-19.927,8.011L553.25,530.25l6.722-4.509
				c2.721,0.85,5.482,1.486,8.353,1.875C575.5,528.606,582.544,528.363,589.279,527.192z"/>
			<path fill="#F5C1A2" d="M664.757,474.376c3.791,3.646,4.104,6.547,2.119,8.639c-1.985,2.085-9.052,5.765-11.713,5.203
				c-2.65-0.567-2.342-7.368-2.342-7.368S661.001,470.733,664.757,474.376z"/>
			<path fill="#D6C8BD" d="M637.94,636.475c-3.074,0.811-6.649,1.66-10.575,2.551c-6.234,1.377-13.277,2.758-20.565,3.955
				c0,0-0.108-7.395,7.119-16.254c7.251-8.842,12.242-0.307,9.663-42.188c-2.591-41.878-43.759-49.273-43.759-49.273
				c0.173-0.104-0.207,0.107,0,0c5.349-2.906,9.456-6.447,9.456-8.038v-0.035c14.325-2.333,27.207-8.535,36.996-14.727l0.032,0.035
				c6.506,1.914,9.909,10.8,11.633,21.88c0.853,5.342,1.354,11.183,1.596,16.986c0.709,15.223-0.022,30.199,0.787,35.225
				c1.763,10.933,9.416,41.91,9.123,45.449C649.389,632.994,644.92,634.623,637.94,636.475z"/>
			<path fill="#007A98" d="M637.94,636.475c0.119,1.197,2.345,30.09-7.42,50.334c4.745-14.9-3.89-46.285-4.213-47.553
				C630.233,638.367,634.866,637.285,637.94,636.475z"/>
			<path fill="#0091B3" d="M571.08,685.713c-1.766,3.109-4.178,7.104-5.669,12.49c0,0-7.11,14.654-10.045,20.846
				c-2.976,6.197-3.191,25.781-3.191,25.781c-1.727-0.932-3.755-1.92-5.875-2.941c-5.836-2.756-12.678-5.461-18.375-6.031
				l-17.022-2.791c0.604-0.529,1.169-1.17,1.584-1.91c1.354-2.303,0-31.824-1.584-59.787l9.979-40.355
				c11.86,7.969,26.87,15.186,39.79,16.076c11.296,0.777,29.276-1.273,46.129-4.109c7.288-1.197,14.331-2.578,20.565-3.955
				c0.322,1.266,7.9,32.883,3.155,47.783c-0.929,1.945-1.987,3.82-3.155,5.555c-4.183,6.26-9.95,11.078-17.84,12.992
				c-5.639,1.42-12.281,1.307-20.246-0.744c0,0-8.072-2.768-13.461-8.111h-0.034c-2.833-2.863-4.948-6.441-4.669-10.756
				L571.08,685.713z"/>
			<path fill="#F3AF97" d="M629.198,473.813c0,0,9.069,14.052,0,16.494c-9.05,2.442-15.497-2.761-15.252-8.637
				C614.162,475.792,622.912,466.062,629.198,473.813z"/>
			<path fill="#F5F1DB" d="M623.582,584.539c2.579,41.881-2.412,33.346-9.663,42.188c-7.228,8.859-7.119,16.254-7.119,16.254
				c-16.853,2.836-34.833,4.887-46.129,4.109c-12.92-0.891-27.93-8.107-39.79-16.076c-5.126-3.428-9.696-7.049-13.2-10.293
				c-4.876-4.533-7.789-8.436-7.609-10.52c0.429-4.86,5.378-16.392,8.963-24.637c-1.525,3.502,43.064,29.064,44.307,29.938
				c1.253,0.889,2.025-5.586,2.025-5.586c-14.762-0.32-42.88-32.668-42.88-32.668c1.572-4.641,0-61.736,0-61.736l-31.53-23.08
				c0.817-2.087,1.594-4.497,2.265-6.937c2.265-8.251,3.545-17.068,3.545-17.068c0.669,0.497,1.413,0.961,2.229,1.349
				c0,0,7.968,3.856,13.561-2.055c0,0,15.64,33.489,41.938,50.587c0,0,8.647,20.492,18.844,21.522
				c4.801,0.497,11.427-1.906,16.487-4.565C579.823,535.266,620.991,542.661,623.582,584.539z"/>
			<path fill="#E6E9EA" d="M591.752,724.857l-0.349-0.215c-2.833-1.623-16.255-9.197-22.124-9.879
				c-0.82-0.102-3.258,1.555-3.868,1.736c0,0,4.869-17.125,10.373-20h0.034c5.389,5.344,13.461,8.111,13.461,8.111
				c7.965,2.051,14.607,2.164,20.246,0.744v0.035c0,0-4.507,13.738-12.105,23.221L591.752,724.857z"/>
			<path fill="#FFF4ED" d="M578.06,470.664c20.519,3.395,32.458,17.626,32.458,17.626s-30.231-1.383-37.919-2.867
				c-7.639-1.486-33.477-11.854-33.477-11.854C544.315,470.523,561.141,467.865,578.06,470.664z"/>
			<path fill="#D84C4A" d="M576.125,488.291c6.238,1.63,19.551,13.378,20.872,12.708c-5.486,2.69-12.634,4.636-21.424,4.566
				c-10.119-0.104-18.829-6.195-25.348-12.815C550.226,492.749,569.927,486.667,576.125,488.291z"/>
			<path fill="#80252F" d="M610.518,488.291c-0.435,2.583-4.929,8.495-13.521,12.708c-1.321,0.67-15.959-7.47-22.197-9.1
				c-6.198-1.624-24.574,0.851-24.574,0.851c-8.027-8.174-12.734-17.273-12.734-17.273c-0.04-0.637,0.535-1.276,1.631-1.907
				c0,0,25.838,10.368,33.477,11.854C580.286,486.907,610.518,488.291,610.518,488.291z"/>
			<path fill="#E11F31" d="M591.752,724.857l5.668,3.754c-4.068,5.098-9.03,8.99-14.633,8.885
				c-15.808-0.293-18.825-8.461-18.931-12.076c0-0.07,0-0.098,0-0.174c0-1.801,0-3.607,0-5.381c0-0.041,0.043-0.068,0-0.143
				c0.25-2.256,1.027-4.318,3.293-4.846c0.61-0.182,1.31-0.215,2.13-0.113c5.869,0.682,19.291,8.256,22.124,9.879L591.752,724.857z"
				/>
			<path fill="#E0B394" d="M579.823,535.266c-0.207,0.107-0.393,0.212-0.565,0.315c-5.061,2.659-11.121,4.747-15.922,4.25
				c-10.196-1.03-18.844-21.522-18.844-21.522c4.815,3.116,9.948,5.701,15.445,7.396l0.034,0.036L579.823,535.266z"/>
			<path fill="#00A4BF" d="M568.324,749.744c3.818,4.232,1.527,18.5-2.351,22.686c-0.586,0.637-1.27,0.543-3.281,1.131
				c-2.832,0.887-7.085,1.947-11.195,2.125c-1.196,0.039-2.403-0.023-3.633-0.203c-1.812-0.262-3.643-0.75-5.627-1.42
				c0,0,3.958-6.619,5.627-10.484c1.664-3.814-1.564-21.656-1.564-21.656l0.4-0.693c2.124,1.018,3.748,2.67,5.475,3.602
				c1.208,0.586,2.266,1.152,3.191,1.656c3.077,1.635,6.337,2.447,8.809,2.834C566.625,749.744,567.624,748.971,568.324,749.744z"/>
			<path fill="#D7BFBE" d="M562.692,773.561l-0.851,11.654c0,0-3.076,1.512-9.802,7.822c0.984-3.256-4.176-17.555-4.176-17.555
				c1.229,0.18,2.437,0.242,3.633,0.203C555.607,775.508,559.86,774.447,562.692,773.561z"/>
			<path fill="#E91E26" d="M561.842,785.215l0.851,13.205c0,0-25.022,26.365-43.467,28.598c-18.449,2.227-25.379-5.027-28.455-8.248
				c-3.124-3.254-0.722-23.295-0.722-23.295c0.852,8.922,6.271,12.785,16.218,13.383c10.437,0.678,29.032,1.35,39.864-9.947
				c2.226-2.303,4.17-4.248,5.909-5.838v-0.035C558.766,786.727,561.842,785.215,561.842,785.215z"/>
			<path fill="#642D2E" d="M562.583,420.22l-22.045-5.018c4.005-1.911,11.069-3.621,13.8-6.344
				C560.069,408.573,562.583,420.22,562.583,420.22z"/>
			<path fill="#D6C8BD" d="M555.366,609.916c0,0-0.772,6.475-2.025,5.586c-1.242-0.873-45.832-26.436-44.307-29.938
				c1.624-3.787,2.967-6.867,3.452-8.316C512.486,577.248,540.604,609.596,555.366,609.916z"/>
			<path fill="#E3DEEF" d="M547.864,775.482c0,0,5.16,14.299,4.176,17.555v0.035c-1.739,1.59-3.684,3.535-5.909,5.838
				c-10.832,11.297-29.428,10.625-39.864,9.947c-9.947-0.598-15.366-4.461-16.218-13.383c-0.033-0.459-0.069-0.92-0.099-1.418
				c-0.352-7.357,8.716-18.15,13.49-23.291c0,0,9.521-3.25,14.355,1.17c4.893,4.424,7.769,15.043,13.278,14.826
				c5.575-0.244,8.111-11.279,7.046-14.295c1.453,0.643,2.807,1.17,4.117,1.596C544.222,774.732,546.053,775.221,547.864,775.482z"
				/>
			<path fill="#F3AF97" d="M534.723,462.626c0.254,5.874-6.197,11.077-15.254,8.637c-9.053-2.441,0-16.494,0-16.494
				C525.765,447.016,534.516,456.786,534.723,462.626z"/>
			<path fill="#CEC6B8" d="M480.956,492.433l31.53,23.08c-16.562-0.462-44.233-15.72-37.157-16.143
				C477.452,499.227,479.327,496.361,480.956,492.433z"/>
			<path fill="#F5C1A2" d="M498.417,452.741l5.661-4.108c-0.278,0.743-5.339,12.96-9.991,12.387
				c-4.735-0.528-4.063-6.616-3.284-10.053C491.543,447.538,498.417,452.741,498.417,452.741z"/>
			<path fill="#F5C1A2" d="M468.425,524.145c0.681,4.643,0.49,9.17-6.611,8.254h-0.035c-0.362-1.241-0.929-2.127-1.704-2.658
				l0.038-0.033C460.112,529.707,465.526,522.449,468.425,524.145z"/>
			<path fill="#E0B394" d="M461.813,532.398c0,0.034,0.028,0.068,0.028,0.099c0,0-8.992,1.951-9.302,0
				c-0.607-3.995,4.135-3.395,4.135-3.395c1.309-0.284,2.472-0.104,3.399,0.638c0.775,0.531,1.342,1.417,1.704,2.658H461.813z"/>
			<g>
				<path fill="#E3886A" d="M572.254,460.186c0,0-0.083-0.276-0.088-0.785c0.014-0.489,0.053-1.29,0.652-2.042
					c0.285-0.379,0.728-0.696,1.235-0.879c0.507-0.211,1.07-0.266,1.639-0.274c0.346,0.003,0.554,0.046,0.844,0.068
					c0.278,0.04,0.581,0.115,0.874,0.184c0.564,0.162,1.115,0.353,1.652,0.581c0.531,0.236,1.052,0.49,1.546,0.768
					c0.505,0.261,0.966,0.576,1.42,0.864c0.899,0.59,1.686,1.216,2.329,1.785c0.649,0.562,1.13,1.101,1.451,1.488
					c0.167,0.187,0.26,0.373,0.33,0.484c0.046,0.136,0.059,0.201,0.059,0.201s-0.036-0.069-0.104-0.171
					c-0.097-0.093-0.23-0.225-0.424-0.378c-0.373-0.317-0.96-0.707-1.662-1.168c-0.706-0.454-1.533-0.977-2.441-1.491
					c-0.911-0.508-1.888-1.037-2.898-1.462c-0.499-0.225-1.014-0.413-1.514-0.569c-0.249-0.057-0.479-0.136-0.734-0.193
					c-0.252-0.036-0.574-0.104-0.758-0.111c-0.485-0.014-0.965-0.026-1.373,0.102c-0.414,0.109-0.78,0.294-1.049,0.56
					c-0.555,0.517-0.791,1.208-0.882,1.675C572.26,459.897,572.254,460.186,572.254,460.186z"/>
			</g>
			<g>
				<path fill="#80421E" d="M633.234,454.731c0,0-0.047-0.134-0.164-0.369c-0.15-0.215-0.377-0.486-0.712-0.84
					c-0.333-0.345-0.757-0.745-1.256-1.188c-0.5-0.442-1.08-0.922-1.725-1.428c-0.317-0.258-0.658-0.514-1.019-0.769
					c-0.354-0.263-0.716-0.536-1.104-0.795c-0.38-0.271-0.777-0.537-1.194-0.791c-0.411-0.263-0.828-0.532-1.267-0.78
					c-0.859-0.526-1.795-0.973-2.737-1.401c-0.466-0.238-0.963-0.373-1.445-0.568c-0.49-0.15-0.986-0.286-1.48-0.391l-0.739-0.124
					l-0.185-0.032l-0.093-0.016c-0.08-0.004,0.097,0.003,0.073,0.002h-0.013l-0.025,0l-0.052,0l-0.415-0.004
					c-0.271,0.001-0.563-0.016-0.814,0l-0.675,0.104c-0.22,0.018-0.454,0.069-0.695,0.146l-0.716,0.179
					c-0.466,0.166-0.934,0.325-1.381,0.521c-0.888,0.416-1.749,0.851-2.528,1.347c-0.394,0.241-0.771,0.487-1.128,0.74
					c-0.366,0.241-0.714,0.483-1.038,0.732c-0.657,0.486-1.251,0.953-1.769,1.379c-0.518,0.427-0.967,0.806-1.331,1.126
					c-0.733,0.637-1.142,1.022-1.142,1.022s0.275-0.489,0.847-1.289c0.287-0.397,0.64-0.882,1.086-1.402
					c0.438-0.528,0.947-1.115,1.558-1.706c0.597-0.605,1.278-1.233,2.063-1.828c0.771-0.612,1.646-1.198,2.618-1.709
					c0.991-0.491,2.025-0.96,3.265-1.169l0.949-0.144c0.294-0.022,0.556-0.011,0.836-0.018l0.414-0.004l0.052,0l0.139,0.004
					l0.112,0.016l0.226,0.032l0.902,0.134c0.585,0.136,1.159,0.306,1.718,0.493c0.537,0.226,1.103,0.401,1.606,0.669
					c0.515,0.248,1.027,0.495,1.494,0.795c0.479,0.282,0.946,0.567,1.383,0.878c0.447,0.297,0.88,0.595,1.275,0.924
					c0.408,0.312,0.794,0.633,1.159,0.956c0.747,0.626,1.402,1.274,1.981,1.894c0.592,0.606,1.088,1.207,1.51,1.752
					c0.43,0.538,0.759,1.046,1.016,1.47c0.259,0.415,0.411,0.805,0.5,1.053C633.225,454.592,633.234,454.731,633.234,454.731z"/>
			</g>
			<g>
				<path fill="#80421E" d="M528.504,436.75c0,0,0.303-0.439,0.931-1.134c0.316-0.344,0.709-0.757,1.194-1.197
					c0.484-0.441,1.053-0.919,1.717-1.391c0.671-0.461,1.418-0.952,2.286-1.345c0.855-0.417,1.824-0.766,2.885-0.956
					c1.056-0.169,2.219-0.251,3.361,0.034c0.296,0.074,0.547,0.115,0.883,0.223l0.736,0.27c0.481,0.157,1.022,0.434,1.531,0.649
					c0.987,0.497,1.926,1.043,2.82,1.63c0.897,0.58,1.723,1.231,2.502,1.876c0.785,0.64,1.494,1.318,2.135,1.989
					c0.652,0.659,1.221,1.332,1.708,1.982c0.501,0.637,0.904,1.27,1.224,1.85c0.337,0.569,0.546,1.119,0.71,1.561
					c0.133,0.464,0.219,0.822,0.215,1.082c0.016,0.249,0.024,0.381,0.024,0.381s-0.046-0.125-0.131-0.359
					c-0.058-0.237-0.259-0.545-0.469-0.937c-0.255-0.376-0.567-0.819-0.979-1.294c-0.405-0.476-0.896-0.987-1.453-1.521
					c-0.554-0.536-1.187-1.085-1.865-1.651c-0.676-0.567-1.426-1.124-2.199-1.693c-0.771-0.575-1.618-1.095-2.461-1.64
					c-0.85-0.532-1.746-1.021-2.646-1.456c-0.457-0.201-0.845-0.431-1.357-0.613l-0.73-0.286c-0.16-0.051-0.423-0.108-0.627-0.164
					c-0.43-0.145-0.887-0.144-1.33-0.215c-0.449-0.008-0.901-0.014-1.347,0.039c-0.889,0.117-1.765,0.301-2.573,0.594
					c-0.813,0.278-1.567,0.618-2.261,0.948c-0.681,0.355-1.307,0.695-1.851,1.021c-0.538,0.335-1.012,0.629-1.393,0.887
					C528.929,436.427,528.504,436.75,528.504,436.75z"/>
			</g>
		</g>
		<g>
			<path fill="#E55626" d="M107.849,436.691c0.723,1.176,6.388-12.087,15.014-12.587c8.625-0.499,19.043-0.654,21.209,0.096
				s6.917-10.167,6.917-10.167s-3.006-14.037-20.461-20.977s-33.611-3.87-39.7-2.988s-14.984,6.487-14.984,6.487
				s8.349,14.19,10.252,16.788C87.999,415.942,105.788,445.557,107.849,436.691"/>
			<polygon fill="#DD9327" points="341.625,506.767 338.572,492.7 328.238,497.7 			"/>
			<path fill="#E78224" d="M154.034,528.975c0,0,4.415-9.475,4.457-9.6s12.885,9.6,12.885,9.6H154.034z"/>
			<path fill="#ED1943" d="M236.188,739.614c0,0,3.628,12.556,10.881,16.3s20.481-4.582,22.418-6.185s6.014-5.637,5.942-6.977
				s0.701-26.365,0.701-26.365L236.188,739.614z"/>
			<path fill="#C9E3E4" d="M235.632,729.797c0,0-2.453,6.336,0.556,9.817s10.35,6.091,23.179-2.058s14.904-16.265,14.904-16.265
				l-1.255-23.279l-13.078,7.277l-24.366,24.368"/>
			<path fill="#FCCBAE" d="M218.894,712.391c0,0,4.575,7.413,7.047,10.065s7.181,7.934,11.552,7.464s13.647-4.625,15.584-7.473
				s6.684-11.882,7.006-14.627s-1.094-4.995-1.094-4.995l-36.5,5.792L218.894,712.391z"/>
			<path fill="#FCCBAE" d="M273.016,698.013l3.716,68.911c0,0,10.429-8.708,30.759-17.091v-57.477l-14.326-2.761l-21.813,3.994
				L273.016,698.013z"/>
			<path fill="#ED1943" d="M188.111,655.92l-15.128,41.834c0,0,19.865,11.647,36.894,13.797s26.467,0.651,41.915-3.35
				s23.621-14.654,33.92-14.525s52.759-2.114,52.759-2.114s-9.264-47.331-13.206-48.242l-57.485,20.313L188.111,655.92z"/>
			<path fill="#E31D3E" d="M275.148,661.028l3.298,12.533l-1,4.433l11.375,15.668c0,0,47.797-2.447,49.648-2.101
				s-10.139-46.456-13.206-48.242L275.148,661.028z"/>
			<path fill="#FCCBAE" d="M148.009,483.145c0,0-27.895-24.066-29.44-25.4s-10.924-7.024-10.838-13.206s-0.659-24.477,2.008-32.324
				c2.667-7.847,3.768-12.111,1.301-13.313s-5.274,1.336-6.97,5.274s-3.748,10.653-5.456,15.589s-6.5,1-9.038-2.079
				s-21.11-33.48-22.44-35.361c-1.331-1.882-4.873-7.663-6.968-6.727c-2.095,0.936,0.965,10.935,3.352,14.269
				s5.835,13.17,6.085,16.893c0.25,3.724,0.704,12.85-13.248,2.729c-13.951-10.12-23.37-21.55-27.411-18.419
				c-4.041,3.132,12.384,17.518,14.648,19.575c2.264,2.057,15.365,12.318,13.671,14.938s-17.318-4.536-22.219-6.312
				c-4.901-1.776-21.427-8.475-22.451-4.522c-1.023,3.953,12.022,10.021,15.545,11.82c3.523,1.8,21.106,9.809,20.269,12.554
				c-0.837,2.746-8.845,2.044-14.504,2.072c-5.659,0.027-16.176,0.265-16.005,2.969c0.171,2.705,17.874,5.913,23.522,5.893
				c5.649-0.021,21.193,9.414,24.652,11.307c3.458,1.894,15.497,5.839,19.664,5.839s5.5,0.834,6.667,2.167
				s65.48,53.646,66.958,54.716l23.209,12.45l9-30.087L148.009,483.145z"/>
			<path fill="#E55626" d="M312.804,390.158c0,0,0.125-9.616,1.856-14.748s4.276-18.74,20.281-23.142s51.187,2.747,60.908,10.09
				c0,0-3.944,12.507-5.305,15.891c-1.361,3.385-6.95,15.894-9.931,16.495s-4.165,0.457-7.26-3.814s-6.891-7.938-10.908-9.521
				s-5.741-6.378-2.496,8.374c0,0-36.879,0.938-40.567,3.751L312.804,390.158z"/>
			<g>
				<path fill="#F8991D" d="M177.514,506.767c6.275,7.234,29.809,23.273,44.725,27.873c14.916,4.599,30.878,3.026,30.878,3.026
					s14.662,125.967,6.122,126.83s-33.857-3.693-33.857-3.693c-11.81-1.27-23.81-2.27-36.81-4.27c-11-3-11-16-7-25c5-9,7-18,8-28
					c0-18,2.523-32.474-1.477-50.474c0-2-1.97-5.81-4.97-7.81c-9-5-20.006-11.088-29.091-16.275c0,0,6.538-3.108,7.413-3.774
					c0.875-0.667,5.25-3.709,6.458-5C169.113,518.908,177.289,510.375,177.514,506.767"/>
			</g>
			<path fill="#FCCBAE" d="M335.572,502.7l-20.148,3.746l1.451-29.995l16.534-10.301c0,0,35.715-34.806,36.501-39.273
				c0.787-4.469-4.955-26.472-9.959-37.095c-5.004-10.624-1.47-14.708,3.325-12.416s7.726,11.225,9.823,13.196
				c2.097,1.971,6.03,8.219,10.688,1.032s13.832-40.944,20.245-42.815c6.42-1.871-1.93,22.832-1.93,22.832
				s-4.175,14.78-1.416,16.289c2.759,1.508,12.322-9.199,15.79-12.594c3.468-3.394,20.039-19.909,25.258-16.028
				c5.219,3.88-28.234,31.473-27.633,34.989c0.602,3.516,3.527,2.939,9.666,0.04c6.139-2.898,20.793-10.116,21.918-10.566
				c1.125-0.451,9.719-4.067,12.243,0.05s-21.939,16.171-25.433,17.953c-3.493,1.783-11.988,5.175-9.641,7.732
				c2.348,2.557,19.609-0.581,23.098-0.609c3.488-0.029,10.633-0.035,10.816,3.19s-9.464,5.397-16.463,6.304
				c-6.999,0.905-15.355,0.721-17.479,5.196s-13.985,15.226-19.312,17.976c-5.32,2.75-11.66,1.045-13.119,2.629
				c-1.458,1.585-53.167,57.492-53.167,57.492l1.541-1.394"/>
			<path fill="#F7AC25" d="M317.755,478.925"/>
			<path fill="#F7AC25" d="M317.755,478.925C314.042,480.677,317.9,482.304,317.755,478.925c-6.184,3.608-14.184,4.608-17.184,9.608
				c-7,11-9,22-12,34c-1,2-2,4-4,5c-16,10-30,19-45,30c-12,9-9,24-4,36c5,10,14,22,8,33c-6,9-17,19-9.39,30.344l4.612,6.424
				c10.778,1.232,20.778,2.232,31.778,0.232c19-5,39-5,54-18c1-2,1-4,1-6c-2-11,0-21-4-31c-2-7-5-13-8-20c-5-15-6-30-3-46
				c2-17,21.053-22.767,31.053-35.767c0,0-12.97-11.816-13.47-13.066S317.772,482.067,317.755,478.925"/>
			<path fill="#F3BDA5" d="M232.186,537.666c0,0,8.47,17.818,23.636,18.052c15.167,0.232,29.18-27.012,30.461-29.493l-31.711,2.309
				l-22.386,6.834C232.186,535.367,231.268,535.957,232.186,537.666z"/>
			<path fill="#F8D5BF" d="M246.055,552.857l13.829-10.449l0,0l31.397-19.898c0,0-15.488,22.869-24.349,28.946
				S251.643,556.904,246.055,552.857z"/>
			<path fill="#9E3724" d="M299.884,389.205c0,0,9.845-2.339,13.371-0.755c3.525,1.583,7.109,4.187,8.066,4.315
				c0.957,0.13,2.751,13.269-1.999,16.102C319.322,408.867,299.768,390.916,299.884,389.205z"/>
			<path fill="#D34827" d="M157.197,419.325l-3.167,6.42c0,0,28.872,3.014,56.269-10.161c27.397-13.176,52.322-36.801,53.047-39.426
				l-5.4-2.625L157.197,419.325z"/>
			<path fill="#FDCEAF" d="M321.498,449.241c9.176-5.949,10.011,2.792,11.346,11.452c1.335,8.659,0.478,12.84-3.591,16.308
				s-11.498,1.924-11.498,1.924c-0.566,5.392-9.549,23.011-9.549,23.011c-4.754,10.229-23.385,34.598-58.903,36.458
				c-35.518,1.859-56.093-17.192-60.099-20.376s-16.222-15.907-16.222-15.907c3.161,10.139-13.724,6.985-17.797,3.45
				s-6.28-6.693-7.477-16.02s4.213-11.93,4.213-11.93l40.816-40.92l35.363-32.516L321.498,449.241z"/>
			<path fill="#DC5E27" d="M216.072,394.976c0,0,29.508,26.47,33.963,29.746s22.838,16.519,33.479,19.123
				c10.641,2.605,19.119,0.834,21.609,2.922c2.49,2.089,7.681,11.392,9.596,11.579s7.308-12.236,12.223-10.906
				c0,0,10.432-20.739-10.802-44.822c-21.234-24.084-52.076-37.633-65.209-36.243S216.072,394.976,216.072,394.976z"/>
			<path fill="#9E3724" d="M150.186,434.179c0,0-11.57-3.751-6.551-11.993s6.878-12.222,11.241-12.062
				c4.363,0.159,5.529,5.16,4.113,8.743S156.05,434.907,150.186,434.179z"/>
			<path fill="#E55626" d="M159.344,417.686c8.079-6.354,50.333-37.478,67.875-39.292c5.847-0.604,3.471,25.782,3.471,25.782
				c-2.632,20.643-25.618,46.107-37.368,57.571s-29.531,19.349-34.094,16.786s-7.306-0.922-7.306-0.922
				c-3.4-4.089-1.736-43.433-1.736-43.433L159.344,417.686z"/>
			<path fill="#D33D27" d="M156.343,423.091c0,0,25.063-2.558,33.063-4.224c8-1.667,35.333-11.228,48.167-23.864
				c12.833-12.636,18.667-16.303,24.5-24.303l-11.755-7.504L163.739,407.2L156.343,423.091z"/>
			<path fill="#FEFCEF" d="M269.072,496.689c0,0-13.063-10.906-23.563-11.036c-10.5-0.131-21.688,11.067-21.688,11.067l1.623,2.875
				c0,0,0.327,0.521,1.085,1.521S269.072,496.689,269.072,496.689"/>
			<path fill="#F3BDA5" d="M315.424,468.158c0,0,3.568-10.452,6.795-10.101c3.228,0.351,3.603,10.663,2.978,11.663
				s-8.45,3.125-8.6,2.125S315.424,468.158,315.424,468.158z"/>
			<path fill="#F3BDA5" d="M164.135,491.844c0,0-5.9-6.019-7.607-3.477c-1.707,2.541,2.502,10.833,5.502,10.708
				s4.544-2.701,4.544-2.701L164.135,491.844z"/>
			<path fill="#AE2229" d="M269.072,496.689c0,0-17.188-0.259-21.93-0.286c-4.742-0.026-21.697,3.192-21.697,3.192
				s11.502,17.255,22.877,16.888C259.697,516.117,268.714,498.18,269.072,496.689z"/>
			<path fill="#D84C4A" d="M264.087,505.283c0,0-8.891-2.875-17.815-3.212s-14.811,4.846-14.811,4.846s8.553,10.189,17.017,9.741
				S262.577,507.033,264.087,505.283z"/>
			<path fill="#F5A323" d="M312.7,585.51c0,0-24.657,31.19-40.726,34.19s-2.652,10.833-1.09,10.083s11.875-8.25,15.313-8.938
				s18.563-12.375,18.688-15.625s11.159-10.171,11.159-10.171"/>
			<path fill="#ED1943" d="M273.016,812.239l1.169-11.658l70.853,5.829c0,0-0.109,12.459,0.258,13.724s0.862,4.9-4.306,8.816
				s-14.834,9.157-23.584,8.578s-21.494-7.046-25.383-9.713S274.127,814.529,273.016,812.239z"/>
			<polygon fill="#EFB491" points="277.947,769.033 276.732,766.924 276.421,761.159 285.572,751.783 307.492,746.408 
				307.492,756.033 			"/>
			<path fill="#C9E3E4" d="M276.13,774.922l52.391,6.199c0,0,18.78,18.506,16.603,24.959c0,0-0.257,5.746-15.092,11.1
				s-19.524,7.487-28.084,2.956s-22.774-13.007-27.762-19.555L276.13,774.922z"/>
			<path fill="#ED1943" d="M276.732,766.924l-0.603,7.998l20.286,8.606c0,0,3.057,14.22,4.403,13.265s1.886-3.734,5.551-6.122
				s18.725-8.712,22.151-9.55c0,0-9.555-12.17-10.877-12.941s-1.291-18.055-5.722-19.351s-3.14,0.465-4.431,1.004
				s-20.045,4.95-20.045,4.95L276.732,766.924z"/>
			<path fill="none" stroke="#000000" stroke-miterlimit="10" d="M107.849,436.691"/>
			<g>
				<path fill="#E3886A" d="M239.567,476.48c0,0-0.143-0.3-0.295-0.865c-0.145-0.563-0.31-1.396-0.221-2.444
					c0.027-0.524,0.162-1.101,0.398-1.699c0.277-0.578,0.646-1.217,1.259-1.672c0.584-0.465,1.321-0.8,2.042-0.943
					c0.754-0.156,1.516-0.139,2.226-0.04c1.433,0.211,2.724,0.765,3.821,1.423c1.1,0.657,2.015,1.436,2.682,2.215
					c0.675,0.77,1.098,1.559,1.228,2.166c0.136,0.63-0.099,0.948-0.081,0.938c0,0,0.002-0.087-0.023-0.23
					c-0.028-0.146-0.122-0.337-0.263-0.556c-0.304-0.435-0.88-0.943-1.632-1.466c-0.76-0.515-1.696-1.043-2.728-1.506
					c-1.033-0.454-2.172-0.841-3.286-1.003c-0.56-0.088-1.099-0.098-1.591-0.035l-0.234,0.037l-0.142,0.041l-0.356,0.085
					c-0.215,0.088-0.439,0.167-0.627,0.293c-0.39,0.232-0.699,0.575-0.977,0.943c-0.23,0.401-0.462,0.81-0.596,1.238
					c-0.292,0.845-0.428,1.635-0.504,2.19C239.589,476.148,239.567,476.48,239.567,476.48z"/>
			</g>
			<g>
				<path fill="#80421E" d="M268.839,458.074c0,0,0.185-0.389,0.591-1.021c0.409-0.629,1.038-1.508,1.942-2.446
					c0.451-0.469,0.956-0.972,1.557-1.431c0.585-0.479,1.251-0.938,1.99-1.343c0.751-0.38,1.552-0.775,2.449-0.976l0.334-0.081
					l0.168-0.04l0.084-0.02l0.021-0.005l0.089-0.013l0.039-0.004l0.624-0.068c0.383-0.068,0.938-0.023,1.409-0.024
					c0.937,0.074,1.795,0.246,2.646,0.445c0.841,0.208,1.637,0.499,2.397,0.78c1.514,0.585,2.854,1.267,3.963,1.912
					c2.228,1.276,3.519,2.418,3.519,2.418s-1.598-0.549-3.995-1.373c-0.593-0.197-1.235-0.411-1.915-0.636
					c-0.678-0.207-1.393-0.425-2.132-0.651c-0.37-0.099-0.746-0.2-1.126-0.301c-0.383-0.079-0.767-0.172-1.152-0.268
					c-0.386-0.071-0.774-0.143-1.165-0.214c-0.381-0.035-0.791-0.103-1.148-0.115c-0.369,0.002-0.659-0.079-1.109-0.018l-0.625,0.05
					l-0.483,0.102c-0.726,0.151-1.44,0.39-2.118,0.675c-0.665,0.316-1.322,0.623-1.914,0.987c-0.597,0.353-1.151,0.722-1.658,1.074
					c-1.007,0.715-1.826,1.371-2.394,1.844C269.158,457.787,268.839,458.074,268.839,458.074z"/>
			</g>
			<g>
				<path fill="#80421E" d="M198.505,464.589c0,0,0.182-0.366,0.599-0.947c0.418-0.577,1.073-1.375,2.007-2.189
					c0.466-0.408,0.995-0.829,1.596-1.22c0.601-0.39,1.258-0.776,1.981-1.094c0.724-0.311,1.49-0.613,2.305-0.808
					c0.813-0.189,1.654-0.334,2.504-0.391l0.319-0.022l0.08-0.005l0.148,0.003l0.149,0.008l0.595,0.032
					c0.396,0.021,0.791,0.042,1.182,0.063c0.197,0.013,0.388,0.015,0.587,0.037l0.618,0.132c0.407,0.09,0.809,0.179,1.205,0.267
					c0.4,0.077,0.774,0.181,1.119,0.338c0.35,0.139,0.693,0.275,1.026,0.408c0.674,0.238,1.237,0.641,1.78,0.93
					c0.54,0.301,0.975,0.683,1.378,0.972c0.395,0.306,0.698,0.628,0.96,0.866c0.496,0.519,0.73,0.851,0.73,0.851
					s-0.086-0.052-0.249-0.149c-0.166-0.088-0.409-0.218-0.718-0.382c-0.319-0.146-0.69-0.341-1.126-0.535
					c-0.452-0.168-0.929-0.407-1.48-0.592c-0.275-0.09-0.562-0.183-0.859-0.28c-0.292-0.103-0.591-0.214-0.917-0.274
					c-0.319-0.075-0.646-0.152-0.981-0.23c-0.167-0.038-0.334-0.08-0.501-0.127l-0.509-0.067c-0.339-0.046-0.685-0.092-1.034-0.14
					l-0.522-0.075c-0.186-0.015-0.387-0.012-0.581-0.019c-0.392-0.009-0.787-0.019-1.184-0.028l-0.596-0.014l-0.149-0.003l-0.038,0
					l-0.019,0l-0.009,0c0.143,0,0.035,0.001,0.064,0.001l-0.069,0.007l-0.277,0.026c-0.742,0.027-1.478,0.133-2.195,0.276
					c-0.714,0.163-1.42,0.328-2.087,0.56c-0.662,0.243-1.305,0.484-1.902,0.759c-0.589,0.286-1.149,0.566-1.657,0.851
					C199.758,463.538,198.505,464.589,198.505,464.589z"/>
			</g>
			<g>
				<g id="XMLID_2_">
					<g>
						<path fill="#7DD0DB" d="M146.798,288.067l112.056,81.325c0,0-8.846,9.953-25.033,21.894l-0.009-0.008L146.798,288.067z"/>
						<path fill="#FFD500" d="M233.813,391.278l0.009,0.008c-4.583,3.381-9.771,6.935-15.504,10.455
							c-9.391,5.768-20.269,9.451-30.334,11.794v-0.009l-41.186-125.459L233.813,391.278z"/>
						<path fill="#FBAD18" d="M187.983,413.526v0.009c-17.77,4.15-32.988,4.15-32.988,4.15l-8.198-129.618L187.983,413.526z"/>
					</g>
					<g>
					</g>
				</g>
			</g>
			<path fill="#DC5E27" d="M233.537,388.629"/>
			<path fill="#F8991D" d="M158.487,523.392"/>
			<g>
				<path fill="#EDB294" d="M325.568,447.399c0.97-0.085,1.992,0.026,2.852,0.525c0.862,0.494,1.484,1.313,1.939,2.179
					c0.899,1.76,1.33,3.701,1.737,5.613c0.392,1.923,0.705,3.858,1.005,5.794c0.292,1.938,0.581,3.883,0.642,5.856
					c0.027,0.986-0.025,1.978-0.186,2.958c-0.158,0.982-0.491,1.936-0.94,2.823c-0.446,0.892-1.034,1.705-1.694,2.442
					c-0.655,0.75-1.342,1.434-2.078,2.106c-0.733,0.661-1.522,1.283-2.422,1.739c-0.896,0.46-1.901,0.715-2.906,0.761
					c-1.007,0.05-2.001-0.093-2.971-0.287c-0.974-0.19-1.918-0.477-2.862-0.761l0.298-0.158c-1.106,3.731-2.361,7.414-3.845,11.018
					c-1.544,3.583-3.295,7.046-5.089,10.498c-1.822,3.434-3.715,6.838-5.921,10.06c-1.093,1.607-2.326,3.167-3.688,4.556
					c-1.33,1.405-2.627,2.852-3.981,4.252c-2.69,2.814-5.675,5.394-8.993,7.471c-1.653,1.044-3.395,1.947-5.149,2.792
					c-1.751,0.835-3.505,1.672-5.277,2.477c-3.543,1.609-7.183,3.043-10.943,4.097c-3.753,1.071-7.602,1.802-11.481,2.214
					c-7.753,0.803-15.625,0.576-23.308-0.797c-7.684-1.356-15.164-3.75-22.283-6.927c-1.778-0.81-3.528-1.64-5.261-2.582
					c-1.703-0.93-3.355-2.051-4.936-3.167c-3.183-2.254-6.238-4.667-9.234-7.148c-2.993-2.486-5.93-5.038-8.752-7.73
					c-1.414-1.335-2.77-2.785-4.049-4.231c-0.648-0.724-1.306-1.432-1.934-2.189c-0.647-0.757-1.256-1.445-1.878-2.35l0.867-0.43
					c0.362,0.88,0.603,1.752,0.732,2.684c0.12,0.921,0.124,1.905-0.224,2.853c-0.329,0.954-1.125,1.764-2.04,2.144l-0.17,0.074
					c-0.111,0.047-0.122,0.042-0.188,0.065l-0.315,0.101c-0.207,0.07-0.42,0.136-0.662,0.181c-0.472,0.115-0.929,0.182-1.382,0.232
					c-1.821,0.208-3.633,0.075-5.415-0.18c-1.781-0.269-3.54-0.703-5.226-1.383c-0.848-0.324-1.664-0.752-2.446-1.251
					c-0.79-0.537-1.43-1.116-2.109-1.723c-1.327-1.216-2.537-2.578-3.536-4.091c-2.027-3.012-3.093-6.648-3.109-10.262
					c-0.031-1.805,0.2-3.616,0.556-5.357c0.382-1.765,0.88-3.514,1.798-5.125c0.464-0.795,1.037-1.556,1.777-2.162
					c0.735-0.608,1.655-1.027,2.613-1.153c0.959-0.132,1.923,0.01,2.809,0.297c0.891,0.259,1.706,0.794,2.444,1.161
					c1.484,0.767,3.24,0.683,4.932,0.384c1.701-0.304,3.375-0.841,5.027-1.421c3.297-1.201,6.52-2.656,9.516-4.467
					c6.029-3.62,11.503-8.136,16.638-12.958c2.561-2.423,5.039-4.939,7.391-7.562c2.321-2.65,4.615-5.352,6.873-8.063
					c2.25-2.722,4.461-5.477,6.519-8.336c1.026-1.43,1.99-2.899,2.943-4.393c0.974-1.478,1.89-2.983,2.825-4.48
					c0.904-1.512,1.837-3.018,2.656-4.566c0.838-1.547,1.597-3.145,2.338-4.742c1.435-3.204,2.823-6.493,3.398-9.927l0.001-0.007
					c0.027-0.161,0.18-0.27,0.341-0.243c0.056,0.009,0.106,0.035,0.146,0.069l9.61,8.421l4.805,4.211l2.403,2.105
					c0.82,0.667,1.673,1.307,2.514,1.95c3.403,2.556,6.858,5.045,10.373,7.442c1.762,1.193,3.542,2.351,5.374,3.43
					c1.833,1.088,3.681,2.133,5.554,3.146c1.868,1.02,3.765,1.984,5.676,2.917c1.927,0.893,3.856,1.804,5.865,2.482
					c4.021,1.4,8.297,1.789,12.546,1.937c2.127,0.098,4.259,0.134,6.386,0.324c0.531,0.053,1.063,0.11,1.59,0.202
					c0.522,0.107,1.063,0.188,1.536,0.505c0.822,0.684,1.511,1.519,2.192,2.332c1.334,1.662,2.632,3.356,3.791,5.146
					c0.58,0.894,1.134,1.804,1.76,2.665c0.314,0.429,0.646,0.848,1.036,1.211c0.382,0.354,0.862,0.683,1.408,0.652
					c-0.546,0.035-1.031-0.29-1.417-0.643c-0.393-0.362-0.729-0.779-1.047-1.206c-0.633-0.858-1.195-1.764-1.781-2.653
					c-1.17-1.779-2.481-3.462-3.825-5.111c-0.69-0.811-1.372-1.626-2.195-2.301c-0.42-0.279-0.969-0.371-1.481-0.468
					c-0.523-0.087-1.052-0.14-1.581-0.189c-2.12-0.173-4.251-0.193-6.38-0.275c-2.128-0.07-4.264-0.171-6.382-0.452
					c-2.119-0.277-4.223-0.722-6.249-1.405c-2.035-0.67-3.975-1.57-5.917-2.452c-1.924-0.922-3.833-1.875-5.713-2.882
					c-1.882-1-3.752-2.039-5.59-3.111c-1.847-1.07-3.649-2.223-5.423-3.405c-3.547-2.373-7.002-4.873-10.422-7.42
					c-0.853-0.648-1.707-1.285-2.541-1.96l-2.409-2.1l-4.819-4.2l-9.638-8.401l0.488-0.18c-0.589,3.563-1.984,6.862-3.42,10.1
					c-0.744,1.612-1.498,3.213-2.34,4.778c-0.831,1.581-1.759,3.085-2.665,4.61c-0.935,1.505-1.854,3.023-2.821,4.501
					c-0.945,1.49-1.918,2.981-2.95,4.427c-2.066,2.887-4.279,5.656-6.527,8.392c-2.261,2.729-4.538,5.425-6.869,8.101
					c-2.363,2.648-4.846,5.182-7.416,7.626c-5.153,4.864-10.645,9.422-16.742,13.106c-3.056,1.856-6.302,3.33-9.646,4.559
					c-1.68,0.594-3.383,1.148-5.165,1.472c-0.888,0.17-1.804,0.249-2.731,0.23c-0.925-0.042-1.887-0.25-2.723-0.673
					c-0.422-0.202-0.813-0.432-1.172-0.624c-0.405-0.206-0.755-0.356-1.167-0.487c-0.792-0.255-1.624-0.369-2.421-0.257
					c-1.622,0.199-2.915,1.426-3.735,2.889c-0.838,1.472-1.323,3.169-1.682,4.852c-0.347,1.72-0.559,3.44-0.526,5.174
					c0.027,3.458,1.045,6.887,2.979,9.749c0.954,1.438,2.112,2.737,3.395,3.906c0.637,0.57,1.32,1.174,1.998,1.627
					c0.708,0.448,1.465,0.848,2.271,1.152c1.596,0.64,3.295,1.057,5.009,1.31c1.712,0.244,3.461,0.355,5.158,0.169
					c0.427-0.046,0.843-0.108,1.233-0.201c0.366-0.064,0.891-0.247,1.192-0.367c0.717-0.306,1.258-0.859,1.52-1.582
					c0.518-1.464,0.122-3.285-0.474-4.805c-0.098-0.25,0.025-0.531,0.274-0.629c0.213-0.084,0.45-0.006,0.576,0.174l0.017,0.025
					c0.482,0.692,1.143,1.478,1.759,2.193c0.609,0.739,1.271,1.456,1.916,2.18c1.29,1.465,2.583,2.855,3.989,4.191
					c2.789,2.675,5.709,5.227,8.682,7.708c2.976,2.478,6.013,4.889,9.161,7.13c1.587,1.125,3.149,2.195,4.852,3.132
					c1.676,0.917,3.433,1.757,5.185,2.56c7.048,3.167,14.463,5.562,22.073,6.924c7.604,1.379,15.399,1.624,23.092,0.849
					c3.843-0.399,7.651-1.112,11.367-2.162c3.723-1.033,7.33-2.443,10.859-4.034c3.508-1.643,7.096-3.167,10.362-5.201
					c3.274-2.039,6.215-4.565,8.895-7.353c1.348-1.386,2.646-2.828,3.989-4.239c1.361-1.382,2.545-2.875,3.641-4.474
					c2.191-3.181,4.088-6.57,5.912-9.987c1.794-3.431,3.559-6.899,5.096-10.443c1.484-3.571,2.736-7.249,3.873-10.948
					c0.038-0.126,0.171-0.197,0.297-0.159h0.001c0.93,0.287,1.861,0.578,2.81,0.77c0.945,0.197,1.906,0.34,2.861,0.3
					c0.953-0.037,1.891-0.267,2.743-0.697c0.855-0.425,1.625-1.02,2.348-1.663c0.715-0.642,1.424-1.338,2.063-2.06
					c0.65-0.716,1.226-1.501,1.663-2.358c0.44-0.854,0.769-1.77,0.929-2.723c0.164-0.952,0.223-1.923,0.203-2.896
					c-0.045-1.947-0.317-3.889-0.595-5.825c-0.293-1.936-0.57-3.875-0.932-5.797c-0.377-1.913-0.777-3.852-1.641-5.607
					c-0.438-0.864-1.038-1.68-1.882-2.182C327.555,447.457,326.539,447.329,325.568,447.399z"/>
			</g>
			<path fill="#FEFCEF" d="M225.444,499.596"/>
		</g>
	</g>
</g>
</svg>
